<?xml version="1.0" encoding="UTF-8" standalone="no"?><svg xmlns="http://www.w3.org/2000/svg" xmlns:xlink="http://www.w3.org/1999/xlink" contentScriptType="application/ecmascript" contentStyleType="text/css" height="740px" preserveAspectRatio="none" style="width:1669px;height:740px;" version="1.1" viewBox="0 0 1669 740" width="1669px" zoomAndPan="magnify"><defs><filter height="300%" id="f65o9vi08ybwn" width="300%" x="-1" y="-1"><feGaussianBlur result="blurOut" stdDeviation="2.0"/><feColorMatrix in="blurOut" result="blurOut2" type="matrix" values="0 0 0 0 0 0 0 0 0 0 0 0 0 0 0 0 0 0 .4 0"/><feOffset dx="4.0" dy="4.0" in="blurOut2" result="blurOut3"/><feBlend in="SourceGraphic" in2="blurOut3" mode="normal"/></filter></defs><g><text fill="#000000" font-family="sans-serif" font-size="18" lengthAdjust="spacingAndGlyphs" textLength="365" x="651.25" y="26.708">Client(js)(line:144-170: To display String)</text><ellipse cx="725.5" cy="40.9531" fill="#000000" filter="url(#f65o9vi08ybwn)" rx="10" ry="10" style="stroke: none; stroke-width: 1.0;"/><path d="M132,81.7734 L132,122.0391 A0,0 0 0 0 132,122.0391 L468,122.0391 A0,0 0 0 0 468,122.0391 L468,105.9063 L488,101.9063 L468,97.9063 L468,91.7734 L458,81.7734 L132,81.7734 A0,0 0 0 0 132,81.7734 " fill="#FBFB77" filter="url(#f65o9vi08ybwn)" style="stroke: #A80036; stroke-width: 1.0;"/><path d="M458,81.7734 L458,91.7734 L468,91.7734 L458,81.7734 " fill="#FBFB77" style="stroke: #A80036; stroke-width: 1.0;"/><ellipse cx="143.5" cy="94.4063" fill="#000000" rx="2.5" ry="2.5" style="stroke: #000000; stroke-width: 0.0;"/><text fill="#000000" font-family="sans-serif" font-size="13" lengthAdjust="spacingAndGlyphs" textLength="304" x="149" y="98.8403">Selection of which type of message is Received.</text><ellipse cx="143.5" cy="109.5391" fill="#000000" rx="2.5" ry="2.5" style="stroke: #000000; stroke-width: 0.0;"/><text fill="#000000" font-family="sans-serif" font-size="13" lengthAdjust="spacingAndGlyphs" textLength="275" x="149" y="113.9731">So accordingly client will generate an Event</text><rect fill="#FEFECE" filter="url(#f65o9vi08ybwn)" height="61.9063" rx="12.5" ry="12.5" style="stroke: #A80036; stroke-width: 1.5;" width="475" x="488" y="70.9531"/><text fill="#000000" font-family="sans-serif" font-size="12" lengthAdjust="spacingAndGlyphs" textLength="310" x="506" y="92.0918">Private event handler when messasge is received</text><text fill="#000000" font-family="sans-serif" font-size="12" font-weight="bold" lengthAdjust="spacingAndGlyphs" textLength="272" x="498" y="106.0605">var private_onMessage = function(evt)</text><text fill="#000000" font-family="sans-serif" font-size="12" font-weight="bold" lengthAdjust="spacingAndGlyphs" textLength="455" x="498" y="120.0293">evt=MessageEvent="Shared:stream_en&amp;true&amp;max_color&amp;100&amp;".</text><path d="M1465.5,431.668 L1465.5,456.8008 L1657.5,456.8008 L1657.5,441.668 L1647.5,431.668 L1465.5,431.668 " fill="#FBFB77" filter="url(#f65o9vi08ybwn)" style="stroke: #A80036; stroke-width: 1.0;"/><path d="M1647.5,431.668 L1647.5,441.668 L1657.5,441.668 L1647.5,431.668 " fill="#FBFB77" style="stroke: #A80036; stroke-width: 1.0;"/><ellipse cx="1477" cy="444.3008" fill="#000000" rx="2.5" ry="2.5" style="stroke: #000000; stroke-width: 0.0;"/><text fill="#000000" font-family="sans-serif" font-size="13" lengthAdjust="spacingAndGlyphs" textLength="160" x="1482.5" y="448.7349">If packet is type of string.</text><polygon fill="#FEFECE" filter="url(#f65o9vi08ybwn)" points="656.5,202.8711,794.5,202.8711,806.5,214.8711,794.5,226.8711,656.5,226.8711,644.5,214.8711,656.5,202.8711" style="stroke: #A80036; stroke-width: 1.5;"/><text fill="#000000" font-family="sans-serif" font-size="11" lengthAdjust="spacingAndGlyphs" textLength="138" x="656.5" y="218.6792">var message = evt.data</text><text fill="#000000" font-family="sans-serif" font-size="11" lengthAdjust="spacingAndGlyphs" textLength="7" x="637.5" y="212.2769">if</text><text fill="#000000" font-family="sans-serif" font-size="11" lengthAdjust="spacingAndGlyphs" textLength="31" x="806.5" y="212.2769">elseif</text><path d="M10,241.2891 L10,266.4219 A0,0 0 0 0 10,266.4219 L226,266.4219 A0,0 0 0 0 226,266.4219 L226,259.2891 L246,253.8555 L226,251.2891 L226,251.2891 L216,241.2891 L10,241.2891 A0,0 0 0 0 10,241.2891 " fill="#FBFB77" filter="url(#f65o9vi08ybwn)" style="stroke: #A80036; stroke-width: 1.0;"/><path d="M216,241.2891 L216,251.2891 L226,251.2891 L216,241.2891 " fill="#FBFB77" style="stroke: #A80036; stroke-width: 1.0;"/><ellipse cx="21.5" cy="253.9219" fill="#000000" rx="2.5" ry="2.5" style="stroke: #000000; stroke-width: 0.0;"/><text fill="#000000" font-family="sans-serif" font-size="13" lengthAdjust="spacingAndGlyphs" textLength="184" x="27" y="258.356">Message= max_color&amp;100&amp;</text><rect fill="#FEFECE" filter="url(#f65o9vi08ybwn)" height="33.9688" rx="12.5" ry="12.5" style="stroke: #A80036; stroke-width: 1.5;" width="234" x="246" y="236.8711"/><text fill="#000000" font-family="sans-serif" font-size="12" lengthAdjust="spacingAndGlyphs" textLength="210" x="256" y="258.0098">message.startsWith("command:")</text><path d="M24.5,287.6914 L24.5,327.957 A0,0 0 0 0 24.5,327.957 L186.5,327.957 A0,0 0 0 0 186.5,327.957 L186.5,311.8242 L206.5,307.8242 L186.5,303.8242 L186.5,297.6914 L176.5,287.6914 L24.5,287.6914 A0,0 0 0 0 24.5,287.6914 " fill="#FBFB77" filter="url(#f65o9vi08ybwn)" style="stroke: #A80036; stroke-width: 1.0;"/><path d="M176.5,287.6914 L176.5,297.6914 L186.5,297.6914 L176.5,287.6914 " fill="#FBFB77" style="stroke: #A80036; stroke-width: 1.0;"/><ellipse cx="36" cy="300.3242" fill="#000000" rx="2.5" ry="2.5" style="stroke: #000000; stroke-width: 0.0;"/><text fill="#000000" font-family="sans-serif" font-size="13" lengthAdjust="spacingAndGlyphs" textLength="130" x="41.5" y="304.7583">Command.length=8</text><ellipse cx="36" cy="315.457" fill="#000000" rx="2.5" ry="2.5" style="stroke: #000000; stroke-width: 0.0;"/><text fill="#000000" font-family="sans-serif" font-size="13" lengthAdjust="spacingAndGlyphs" textLength="66" x="41.5" y="319.8911">max_color</text><rect fill="#FEFECE" filter="url(#f65o9vi08ybwn)" height="33.9688" rx="12.5" ry="12.5" style="stroke: #A80036; stroke-width: 1.5;" width="313" x="206.5" y="290.8398"/><text fill="#000000" font-family="sans-serif" font-size="12" lengthAdjust="spacingAndGlyphs" textLength="293" x="216.5" y="311.9785">message = message.slice("command:".length)</text><path d="M90.5,352.375 L90.5,377.5078 A0,0 0 0 0 90.5,377.5078 L260.5,377.5078 A0,0 0 0 0 260.5,377.5078 L260.5,370.375 L280.5,364.9414 L260.5,362.375 L260.5,362.375 L250.5,352.375 L90.5,352.375 A0,0 0 0 0 90.5,352.375 " fill="#FBFB77" filter="url(#f65o9vi08ybwn)" style="stroke: #A80036; stroke-width: 1.0;"/><path d="M250.5,352.375 L250.5,362.375 L260.5,362.375 L250.5,352.375 " fill="#FBFB77" style="stroke: #A80036; stroke-width: 1.0;"/><ellipse cx="102" cy="365.0078" fill="#000000" rx="2.5" ry="2.5" style="stroke: #000000; stroke-width: 0.0;"/><text fill="#000000" font-family="sans-serif" font-size="13" lengthAdjust="spacingAndGlyphs" textLength="138" x="107.5" y="369.4419">Message= max_color</text><rect fill="#FEFECE" filter="url(#f65o9vi08ybwn)" height="33.9688" rx="12.5" ry="12.5" style="stroke: #A80036; stroke-width: 1.5;" width="165" x="280.5" y="347.957"/><text fill="#000000" font-family="sans-serif" font-size="12" lengthAdjust="spacingAndGlyphs" textLength="145" x="290.5" y="369.0957">onCommand(message)</text><path d="M1221.5,241.2891 L1221.5,249.8555 L1201.5,253.8555 L1221.5,257.8555 L1221.5,266.4219 A0,0 0 0 0 1221.5,266.4219 L1437.5,266.4219 A0,0 0 0 0 1437.5,266.4219 L1437.5,251.2891 L1427.5,241.2891 L1221.5,241.2891 A0,0 0 0 0 1221.5,241.2891 " fill="#FBFB77" filter="url(#f65o9vi08ybwn)" style="stroke: #A80036; stroke-width: 1.0;"/><path d="M1427.5,241.2891 L1427.5,251.2891 L1437.5,251.2891 L1427.5,241.2891 " fill="#FBFB77" style="stroke: #A80036; stroke-width: 1.0;"/><ellipse cx="1233" cy="253.9219" fill="#000000" rx="2.5" ry="2.5" style="stroke: #000000; stroke-width: 0.0;"/><text fill="#000000" font-family="sans-serif" font-size="13" lengthAdjust="spacingAndGlyphs" textLength="184" x="1238.5" y="258.356">Message= max_color&amp;100&amp;</text><rect fill="#FEFECE" filter="url(#f65o9vi08ybwn)" height="33.9688" rx="12.5" ry="12.5" style="stroke: #A80036; stroke-width: 1.5;" width="227" x="974.5" y="236.8711"/><text fill="#000000" font-family="sans-serif" font-size="12" lengthAdjust="spacingAndGlyphs" textLength="207" x="984.5" y="258.0098">(message.startsWith(connected)</text><path d="M738.5,287.6914 L738.5,327.957 A0,0 0 0 0 738.5,327.957 L908.5,327.957 A0,0 0 0 0 908.5,327.957 L908.5,311.8242 L928.5,307.8242 L908.5,303.8242 L908.5,297.6914 L898.5,287.6914 L738.5,287.6914 A0,0 0 0 0 738.5,287.6914 " fill="#FBFB77" filter="url(#f65o9vi08ybwn)" style="stroke: #A80036; stroke-width: 1.0;"/><path d="M898.5,287.6914 L898.5,297.6914 L908.5,297.6914 L898.5,287.6914 " fill="#FBFB77" style="stroke: #A80036; stroke-width: 1.0;"/><ellipse cx="750" cy="300.3242" fill="#000000" rx="2.5" ry="2.5" style="stroke: #000000; stroke-width: 0.0;"/><text fill="#000000" font-family="sans-serif" font-size="13" lengthAdjust="spacingAndGlyphs" textLength="138" x="755.5" y="304.7583">connected.length=10</text><ellipse cx="750" cy="315.457" fill="#000000" rx="2.5" ry="2.5" style="stroke: #000000; stroke-width: 0.0;"/><text fill="#000000" font-family="sans-serif" font-size="13" lengthAdjust="spacingAndGlyphs" textLength="24" x="755.5" y="319.8911">100</text><rect fill="#FEFECE" filter="url(#f65o9vi08ybwn)" height="33.9688" rx="12.5" ry="12.5" style="stroke: #A80036; stroke-width: 1.5;" width="319" x="928.5" y="290.8398"/><text fill="#000000" font-family="sans-serif" font-size="12" lengthAdjust="spacingAndGlyphs" textLength="299" x="938.5" y="311.9785">message = message.slice("connected:".length)</text><path d="M1210.5,352.375 L1210.5,360.9414 L1190.5,364.9414 L1210.5,368.9414 L1210.5,377.5078 A0,0 0 0 0 1210.5,377.5078 L1426.5,377.5078 A0,0 0 0 0 1426.5,377.5078 L1426.5,362.375 L1416.5,352.375 L1210.5,352.375 A0,0 0 0 0 1210.5,352.375 " fill="#FBFB77" filter="url(#f65o9vi08ybwn)" style="stroke: #A80036; stroke-width: 1.0;"/><path d="M1416.5,352.375 L1416.5,362.375 L1426.5,362.375 L1416.5,352.375 " fill="#FBFB77" style="stroke: #A80036; stroke-width: 1.0;"/><ellipse cx="1222" cy="365.0078" fill="#000000" rx="2.5" ry="2.5" style="stroke: #000000; stroke-width: 0.0;"/><text fill="#000000" font-family="sans-serif" font-size="13" lengthAdjust="spacingAndGlyphs" textLength="184" x="1227.5" y="369.4419">Message= max_color&amp;100&amp;</text><rect fill="#FEFECE" filter="url(#f65o9vi08ybwn)" height="33.9688" rx="12.5" ry="12.5" style="stroke: #A80036; stroke-width: 1.5;" width="205" x="985.5" y="347.957"/><text fill="#000000" font-family="sans-serif" font-size="12" lengthAdjust="spacingAndGlyphs" textLength="185" x="995.5" y="369.0957">(message.startsWith(Shared)</text><path d="M716.5,391.9258 L716.5,492.7227 A0,0 0 0 0 716.5,492.7227 L908.5,492.7227 A0,0 0 0 0 908.5,492.7227 L908.5,446.3242 L928.5,442.3242 L908.5,438.3242 L908.5,401.9258 L898.5,391.9258 L716.5,391.9258 A0,0 0 0 0 716.5,391.9258 " fill="#FBFB77" filter="url(#f65o9vi08ybwn)" style="stroke: #A80036; stroke-width: 1.0;"/><path d="M898.5,391.9258 L898.5,401.9258 L908.5,401.9258 L898.5,391.9258 " fill="#FBFB77" style="stroke: #A80036; stroke-width: 1.0;"/><ellipse cx="728" cy="404.5586" fill="#000000" rx="2.5" ry="2.5" style="stroke: #000000; stroke-width: 0.0;"/><text fill="#000000" font-family="sans-serif" font-size="13" lengthAdjust="spacingAndGlyphs" textLength="130" x="733.5" y="408.9927">connected.length=7</text><ellipse cx="728" cy="419.6914" fill="#000000" rx="2.5" ry="2.5" style="stroke: #000000; stroke-width: 0.0;"/><text fill="#000000" font-family="sans-serif" font-size="13" lengthAdjust="spacingAndGlyphs" textLength="77" x="733.5" y="424.1255">???????????</text><text fill="#000000" font-family="sans-serif" font-size="13" lengthAdjust="spacingAndGlyphs" textLength="0" x="726.5" y="439.2583"/><text fill="#000000" font-family="sans-serif" font-size="13" lengthAdjust="spacingAndGlyphs" textLength="171" x="722.5" y="454.3911">:while(message.length&gt;0);</text><text fill="#000000" font-family="sans-serif" font-size="13" lengthAdjust="spacingAndGlyphs" textLength="62" x="722.5" y="469.5239">note right</text><ellipse cx="728" cy="480.2227" fill="#000000" rx="2.5" ry="2.5" style="stroke: #000000; stroke-width: 0.0;"/><text fill="#000000" font-family="sans-serif" font-size="13" lengthAdjust="spacingAndGlyphs" textLength="130" x="733.5" y="484.6567">message.length=14</text><rect fill="#FEFECE" filter="url(#f65o9vi08ybwn)" height="33.9688" rx="12.5" ry="12.5" style="stroke: #A80036; stroke-width: 1.5;" width="319" x="928.5" y="425.3398"/><text fill="#000000" font-family="sans-serif" font-size="12" lengthAdjust="spacingAndGlyphs" textLength="299" x="938.5" y="446.4785">message = message.slice("connected:".length)</text><path d="M539.5,502.7227 L539.5,588.3867 A0,0 0 0 0 539.5,588.3867 L880.5,588.3867 A0,0 0 0 0 880.5,588.3867 L880.5,549.5547 L900.5,545.5547 L880.5,541.5547 L880.5,512.7227 L870.5,502.7227 L539.5,502.7227 A0,0 0 0 0 539.5,502.7227 " fill="#FBFB77" filter="url(#f65o9vi08ybwn)" style="stroke: #A80036; stroke-width: 1.0;"/><path d="M870.5,502.7227 L870.5,512.7227 L880.5,512.7227 L870.5,502.7227 " fill="#FBFB77" style="stroke: #A80036; stroke-width: 1.0;"/><ellipse cx="551" cy="515.3555" fill="#000000" rx="2.5" ry="2.5" style="stroke: #000000; stroke-width: 0.0;"/><text fill="#000000" font-family="sans-serif" font-size="13" lengthAdjust="spacingAndGlyphs" textLength="117" x="556.5" y="519.7896">name=stream_en</text><ellipse cx="551" cy="530.4883" fill="#000000" rx="2.5" ry="2.5" style="stroke: #000000; stroke-width: 0.0;"/><text fill="#000000" font-family="sans-serif" font-size="13" lengthAdjust="spacingAndGlyphs" textLength="180" x="556.5" y="534.9224">Message=max_color&amp;127&amp;</text><ellipse cx="551" cy="545.6211" fill="#000000" rx="2.5" ry="2.5" style="stroke: #000000; stroke-width: 0.0;"/><text fill="#000000" font-family="sans-serif" font-size="13" lengthAdjust="spacingAndGlyphs" textLength="153" x="556.5" y="550.0552">Output(Messasge)=127</text><ellipse cx="551" cy="560.7539" fill="#000000" rx="2.5" ry="2.5" style="stroke: #000000; stroke-width: 0.0;"/><text fill="#000000" font-family="sans-serif" font-size="13" lengthAdjust="spacingAndGlyphs" textLength="309" x="556.5" y="565.188">message.substring(0,1(messsage.index0f("&amp;")))</text><ellipse cx="551" cy="575.8867" fill="#000000" rx="2.5" ry="2.5" style="stroke: #000000; stroke-width: 0.0;"/><text fill="#000000" font-family="sans-serif" font-size="13" lengthAdjust="spacingAndGlyphs" textLength="253" x="556.5" y="580.3208">&amp; = delimiter which will divide the string</text><rect fill="#FEFECE" filter="url(#f65o9vi08ybwn)" height="33.9688" rx="12.5" ry="12.5" style="stroke: #A80036; stroke-width: 1.5;" width="375" x="900.5" y="528.5703"/><text fill="#000000" font-family="sans-serif" font-size="12" lengthAdjust="spacingAndGlyphs" textLength="355" x="910.5" y="549.709">var name = message.substring(0,message.indexOf("&amp;"))</text><path d="M1294.5,612.8047 L1294.5,621.3711 L1274.5,625.3711 L1294.5,629.3711 L1294.5,637.9375 A0,0 0 0 0 1294.5,637.9375 L1401.5,637.9375 A0,0 0 0 0 1401.5,637.9375 L1401.5,622.8047 L1391.5,612.8047 L1294.5,612.8047 A0,0 0 0 0 1294.5,612.8047 " fill="#FBFB77" filter="url(#f65o9vi08ybwn)" style="stroke: #A80036; stroke-width: 1.0;"/><path d="M1391.5,612.8047 L1391.5,622.8047 L1401.5,622.8047 L1391.5,612.8047 " fill="#FBFB77" style="stroke: #A80036; stroke-width: 1.0;"/><ellipse cx="1306" cy="625.4375" fill="#000000" rx="2.5" ry="2.5" style="stroke: #000000; stroke-width: 0.0;"/><text fill="#000000" font-family="sans-serif" font-size="13" lengthAdjust="spacingAndGlyphs" textLength="75" x="1311.5" y="629.8716">value= true</text><rect fill="#FEFECE" filter="url(#f65o9vi08ybwn)" height="33.9688" rx="12.5" ry="12.5" style="stroke: #A80036; stroke-width: 1.5;" width="373" x="901.5" y="608.3867"/><text fill="#000000" font-family="sans-serif" font-size="12" lengthAdjust="spacingAndGlyphs" textLength="353" x="911.5" y="629.5254">var value = message.substring(0,message.indexOf("&amp;"))</text><ellipse cx="1088" cy="673.3555" fill="#FFFFFF" filter="url(#f65o9vi08ybwn)" rx="11" ry="11" style="stroke: #000000; stroke-width: 1.0;"/><ellipse cx="1088" cy="673.3555" fill="#000000" rx="6" ry="6" style="stroke: #7F7F7F; stroke-width: 1.0;"/><polygon fill="#FEFECE" filter="url(#f65o9vi08ybwn)" points="582,152.8594,869,152.8594,881,165.6641,869,178.4688,582,178.4688,570,165.6641,582,152.8594" style="stroke: #A80036; stroke-width: 1.5;"/><text fill="#000000" font-family="sans-serif" font-size="11" lengthAdjust="spacingAndGlyphs" textLength="20" x="729.5" y="188.6792">yes</text><text fill="#000000" font-family="sans-serif" font-size="11" lengthAdjust="spacingAndGlyphs" textLength="163" x="586" y="163.0698">typeof evt.data === "string"</text><text fill="#000000" font-family="sans-serif" font-size="11" font-weight="bold" lengthAdjust="spacingAndGlyphs" textLength="287" x="582" y="175.8745">evt.data=stream_en&amp;true&amp;max_color&amp;100&amp;)</text><polygon fill="#FEFECE" filter="url(#f65o9vi08ybwn)" points="725.5,704.3555,737.5,716.3555,725.5,728.3555,713.5,716.3555,725.5,704.3555" style="stroke: #A80036; stroke-width: 1.5;"/><line style="stroke: #A80036; stroke-width: 1.5;" x1="725.5" x2="725.5" y1="50.9531" y2="70.9531"/><polygon fill="#A80036" points="721.5,60.9531,725.5,70.9531,729.5,60.9531,725.5,64.9531" style="stroke: #A80036; stroke-width: 1.0;"/><line style="stroke: #A80036; stroke-width: 1.5;" x1="363" x2="363" y1="270.8398" y2="290.8398"/><polygon fill="#A80036" points="359,280.8398,363,290.8398,367,280.8398,363,284.8398" style="stroke: #A80036; stroke-width: 1.0;"/><line style="stroke: #A80036; stroke-width: 1.5;" x1="363" x2="363" y1="324.8086" y2="347.957"/><polygon fill="#A80036" points="359,337.957,363,347.957,367,337.957,363,341.957" style="stroke: #A80036; stroke-width: 1.0;"/><line style="stroke: #A80036; stroke-width: 1.5;" x1="1088" x2="1088" y1="270.8398" y2="290.8398"/><polygon fill="#A80036" points="1084,280.8398,1088,290.8398,1092,280.8398,1088,284.8398" style="stroke: #A80036; stroke-width: 1.0;"/><line style="stroke: #A80036; stroke-width: 1.5;" x1="1088" x2="1088" y1="324.8086" y2="347.957"/><polygon fill="#A80036" points="1084,337.957,1088,347.957,1092,337.957,1088,341.957" style="stroke: #A80036; stroke-width: 1.0;"/><line style="stroke: #A80036; stroke-width: 1.5;" x1="1088" x2="1088" y1="381.9258" y2="425.3398"/><polygon fill="#A80036" points="1084,415.3398,1088,425.3398,1092,415.3398,1088,419.3398" style="stroke: #A80036; stroke-width: 1.0;"/><line style="stroke: #A80036; stroke-width: 1.5;" x1="1088" x2="1088" y1="459.3086" y2="528.5703"/><polygon fill="#A80036" points="1084,518.5703,1088,528.5703,1092,518.5703,1088,522.5703" style="stroke: #A80036; stroke-width: 1.0;"/><line style="stroke: #A80036; stroke-width: 1.5;" x1="1088" x2="1088" y1="562.5391" y2="608.3867"/><polygon fill="#A80036" points="1084,598.3867,1088,608.3867,1092,598.3867,1088,602.3867" style="stroke: #A80036; stroke-width: 1.0;"/><line style="stroke: #A80036; stroke-width: 1.5;" x1="1088" x2="1088" y1="642.3555" y2="662.3555"/><polygon fill="#A80036" points="1084,652.3555,1088,662.3555,1092,652.3555,1088,656.3555" style="stroke: #A80036; stroke-width: 1.0;"/><line style="stroke: #A80036; stroke-width: 1.5;" x1="644.5" x2="363" y1="214.8711" y2="214.8711"/><line style="stroke: #A80036; stroke-width: 1.5;" x1="363" x2="363" y1="214.8711" y2="236.8711"/><polygon fill="#A80036" points="359,226.8711,363,236.8711,367,226.8711,363,230.8711" style="stroke: #A80036; stroke-width: 1.0;"/><line style="stroke: #A80036; stroke-width: 1.5;" x1="806.5" x2="1088" y1="214.8711" y2="214.8711"/><line style="stroke: #A80036; stroke-width: 1.5;" x1="1088" x2="1088" y1="214.8711" y2="236.8711"/><polygon fill="#A80036" points="1084,226.8711,1088,236.8711,1092,226.8711,1088,230.8711" style="stroke: #A80036; stroke-width: 1.0;"/><line style="stroke: #A80036; stroke-width: 1.5;" x1="363" x2="363" y1="381.9258" y2="689.3555"/><line style="stroke: #A80036; stroke-width: 1.5;" x1="363" x2="725.5" y1="689.3555" y2="689.3555"/><line style="stroke: #A80036; stroke-width: 1.5;" x1="725.5" x2="725.5" y1="689.3555" y2="704.3555"/><polygon fill="#A80036" points="721.5,694.3555,725.5,704.3555,729.5,694.3555,725.5,698.3555" style="stroke: #A80036; stroke-width: 1.0;"/><line style="stroke: #A80036; stroke-width: 1.5;" x1="725.5" x2="725.5" y1="178.4688" y2="202.8711"/><polygon fill="#A80036" points="721.5,192.8711,725.5,202.8711,729.5,192.8711,725.5,196.8711" style="stroke: #A80036; stroke-width: 1.0;"/><line style="stroke: #A80036; stroke-width: 1.5;" x1="881" x2="1451.5" y1="165.6641" y2="165.6641"/><polygon fill="#A80036" points="1447.5,434.6367,1451.5,444.6367,1455.5,434.6367,1451.5,438.6367" style="stroke: #A80036; stroke-width: 1.5;"/><line style="stroke: #A80036; stroke-width: 1.5;" x1="1451.5" x2="1451.5" y1="165.6641" y2="716.3555"/><line style="stroke: #A80036; stroke-width: 1.5;" x1="1451.5" x2="737.5" y1="716.3555" y2="716.3555"/><polygon fill="#A80036" points="747.5,712.3555,737.5,716.3555,747.5,720.3555,743.5,716.3555" style="stroke: #A80036; stroke-width: 1.0;"/><line style="stroke: #A80036; stroke-width: 1.5;" x1="725.5" x2="725.5" y1="132.8594" y2="152.8594"/><polygon fill="#A80036" points="721.5,142.8594,725.5,152.8594,729.5,142.8594,725.5,146.8594" style="stroke: #A80036; stroke-width: 1.0;"/><!--MD5=[b0738a4b97ebad2e9df81920d464bb21]
@startuml
title Client(js)(line:144-170: To display String)


start
 
:  Private event handler when messasge is received
**var private_onMessage = function(evt)**
**evt=MessageEvent="Shared:stream_en&true&max_color&100&".**;


note left
* Selection of which type of message is Received.
*So accordingly client will generate an Event
end note

if ( typeof evt.data === "string"
**evt.data=stream_en&true&max_color&100&)**) then (yes)


note right
* If packet is type of string.
end note
if (var message = evt.data) then (if)



:message.startsWith("command:") ;
note left
* Message= max_color&100&
end note
:message = message.slice("command:".length);
note left
*Command.length=8
*max_color
end note
:onCommand(message);
note left
* Message= max_color
end note

else(elseif)
:(message.startsWith(connected);
note right
* Message= max_color&100&
end note

:message = message.slice("connected:".length);
note left
*connected.length=10
*100
end note

:(message.startsWith(Shared);
note right
* Message= max_color&100&
end note

:message = message.slice("connected:".length);
note left
*connected.length=7
*???????????

:while(message.length>0);
note right
*message.length=14
end note

:var name = message.substring(0,message.indexOf("&"));
note left
*name=stream_en
*Message=max_color&127&
*Output(Messasge)=127
*message.substring(0,1(messsage.index0f("&")))
*& = delimiter which will divide the string
end note

:var value = message.substring(0,message.indexOf("&"));
note right
*value= true
end note


stop
@enduml

PlantUML version 1.2019.12(Sun Nov 03 10:24:54 UTC 2019)
(GPL source distribution)
Java Runtime: Java(TM) SE Runtime Environment
JVM: Java HotSpot(TM) 64-Bit Server VM
Java Version: 1.7.0_25-b15
Operating System: Linux
Default Encoding: UTF-8
Language: en
Country: US
--></g></svg>