<?xml version="1.0" encoding="UTF-8" standalone="no"?><svg xmlns="http://www.w3.org/2000/svg" xmlns:xlink="http://www.w3.org/1999/xlink" contentScriptType="application/ecmascript" contentStyleType="text/css" height="544px" preserveAspectRatio="none" style="width:1126px;height:544px;" version="1.1" viewBox="0 0 1126 544" width="1126px" zoomAndPan="magnify"><defs><filter height="300%" id="f3ngn6pk05s9v" width="300%" x="-1" y="-1"><feGaussianBlur result="blurOut" stdDeviation="2.0"/><feColorMatrix in="blurOut" result="blurOut2" type="matrix" values="0 0 0 0 0 0 0 0 0 0 0 0 0 0 0 0 0 0 .4 0"/><feOffset dx="4.0" dy="4.0" in="blurOut2" result="blurOut3"/><feBlend in="SourceGraphic" in2="blurOut3" mode="normal"/></filter></defs><g><text fill="#000000" font-family="sans-serif" font-size="18" lengthAdjust="spacingAndGlyphs" textLength="156" x="484" y="26.708">Server.cpp Part:1</text><ellipse cx="665" cy="40.9531" fill="#000000" filter="url(#f3ngn6pk05s9v)" rx="10" ry="10" style="stroke: none; stroke-width: 1.0;"/><path d="M878,82.3555 L878,90.9219 L858,94.9219 L878,98.9219 L878,107.4883 A0,0 0 0 0 878,107.4883 L999,107.4883 A0,0 0 0 0 999,107.4883 L999,92.3555 L989,82.3555 L878,82.3555 A0,0 0 0 0 878,82.3555 " fill="#FBFB77" filter="url(#f3ngn6pk05s9v)" style="stroke: #A80036; stroke-width: 1.0;"/><path d="M989,82.3555 L989,92.3555 L999,92.3555 L989,82.3555 " fill="#FBFB77" style="stroke: #A80036; stroke-width: 1.0;"/><ellipse cx="889.5" cy="94.9883" fill="#000000" rx="2.5" ry="2.5" style="stroke: #000000; stroke-width: 0.0;"/><text fill="#000000" font-family="sans-serif" font-size="13" lengthAdjust="spacingAndGlyphs" textLength="89" x="895" y="99.4224">OnInitMethod:</text><rect fill="#FEFECE" filter="url(#f3ngn6pk05s9v)" height="47.9375" rx="12.5" ry="12.5" style="stroke: #A80036; stroke-width: 1.5;" width="386" x="472" y="70.9531"/><text fill="#000000" font-family="sans-serif" font-size="12" lengthAdjust="spacingAndGlyphs" textLength="116" x="570" y="92.0918">Include header file</text><text fill="#000000" font-family="sans-serif" font-size="12" lengthAdjust="spacingAndGlyphs" textLength="33" x="482" y="106.0605">: void</text><text fill="#000000" font-family="sans-serif" font-size="12" font-weight="bold" lengthAdjust="spacingAndGlyphs" textLength="95" x="523" y="106.0605">onInitMethod</text><text fill="#000000" font-family="sans-serif" font-size="12" lengthAdjust="spacingAndGlyphs" textLength="226" x="622" y="106.0605">(std::string*name, std::string*value)</text><polygon fill="#FEFECE" filter="url(#f3ngn6pk05s9v)" points="571,138.8906,759,138.8906,771,150.8906,759,162.8906,571,162.8906,559,150.8906,571,138.8906" style="stroke: #A80036; stroke-width: 1.5;"/><text fill="#000000" font-family="sans-serif" font-size="11" lengthAdjust="spacingAndGlyphs" textLength="121" x="571" y="154.6987">Name compared with</text><text fill="#000000" font-family="sans-serif" font-size="11" font-weight="bold" lengthAdjust="spacingAndGlyphs" textLength="63" x="696" y="154.6987">HTML Tag</text><text fill="#000000" font-family="sans-serif" font-size="11" lengthAdjust="spacingAndGlyphs" textLength="7" x="552" y="148.2964">if</text><text fill="#000000" font-family="sans-serif" font-size="11" lengthAdjust="spacingAndGlyphs" textLength="7" x="771" y="148.2964">if</text><rect fill="#FEFECE" filter="url(#f3ngn6pk05s9v)" height="33.9688" rx="12.5" ry="12.5" style="stroke: #A80036; stroke-width: 1.5;" width="262" x="392.75" y="172.8906"/><text fill="#000000" font-family="sans-serif" font-size="12" lengthAdjust="spacingAndGlyphs" textLength="115" x="402.75" y="194.0293">(*name).compare(</text><text fill="#000000" font-family="sans-serif" font-size="12" font-weight="bold" lengthAdjust="spacingAndGlyphs" textLength="81" x="517.75" y="194.0293">"max_color"</text><text fill="#000000" font-family="sans-serif" font-size="12" lengthAdjust="spacingAndGlyphs" textLength="42" x="598.75" y="194.0293">) ==0)</text><rect fill="#FEFECE" filter="url(#f3ngn6pk05s9v)" height="33.9688" rx="12.5" ry="12.5" style="stroke: #A80036; stroke-width: 1.5;" width="109" x="469.25" y="226.8594"/><text fill="#000000" font-family="sans-serif" font-size="12" lengthAdjust="spacingAndGlyphs" textLength="85" x="483.25" y="247.998">value = "127"</text><rect fill="#FEFECE" filter="url(#f3ngn6pk05s9v)" height="33.9688" rx="12.5" ry="12.5" style="stroke: #A80036; stroke-width: 1.5;" width="263" x="674.75" y="172.8906"/><text fill="#000000" font-family="sans-serif" font-size="12" lengthAdjust="spacingAndGlyphs" textLength="115" x="684.75" y="194.0293">(*name).compare(</text><text fill="#000000" font-family="sans-serif" font-size="12" font-weight="bold" lengthAdjust="spacingAndGlyphs" textLength="86" x="799.75" y="194.0293">"stream_en"</text><text fill="#000000" font-family="sans-serif" font-size="12" lengthAdjust="spacingAndGlyphs" textLength="42" x="885.75" y="194.0293">) ==0)</text><rect fill="#FEFECE" filter="url(#f3ngn6pk05s9v)" height="33.9688" rx="12.5" ry="12.5" style="stroke: #A80036; stroke-width: 1.5;" width="111" x="750.75" y="226.8594"/><text fill="#000000" font-family="sans-serif" font-size="12" lengthAdjust="spacingAndGlyphs" textLength="87" x="764.75" y="247.998">value = "true"</text><polygon fill="#FEFECE" filter="url(#f3ngn6pk05s9v)" points="665,266.8281,677,278.8281,665,290.8281,653,278.8281,665,266.8281" style="stroke: #A80036; stroke-width: 1.5;"/><rect fill="#FEFECE" filter="url(#f3ngn6pk05s9v)" height="33.9688" rx="12.5" ry="12.5" style="stroke: #A80036; stroke-width: 1.5;" width="69" x="630.5" y="310.8281"/><text fill="#000000" font-family="sans-serif" font-size="12" lengthAdjust="spacingAndGlyphs" textLength="49" x="640.5" y="331.9668">(return)</text><path d="M10,354.7969 L10,425.3281 A0,0 0 0 0 10,425.3281 L425,425.3281 A0,0 0 0 0 425,425.3281 L425,394.0625 L445,390.0625 L425,386.0625 L425,364.7969 L415,354.7969 L10,354.7969 A0,0 0 0 0 10,354.7969 " fill="#FBFB77" filter="url(#f3ngn6pk05s9v)" style="stroke: #A80036; stroke-width: 1.0;"/><path d="M415,354.7969 L415,364.7969 L425,364.7969 L415,354.7969 " fill="#FBFB77" style="stroke: #A80036; stroke-width: 1.0;"/><ellipse cx="21.5" cy="367.4297" fill="#000000" rx="2.5" ry="2.5" style="stroke: #000000; stroke-width: 0.0;"/><text fill="#000000" font-family="sans-serif" font-size="13" lengthAdjust="spacingAndGlyphs" textLength="347" x="27" y="371.8638">Do something when some shared value was updated !</text><ellipse cx="21.5" cy="382.5625" fill="#000000" rx="2.5" ry="2.5" style="stroke: #000000; stroke-width: 0.0;"/><text fill="#000000" font-family="sans-serif" font-size="13" lengthAdjust="spacingAndGlyphs" textLength="367" x="27" y="386.9966">This is only event, the value was updated locally in server.</text><ellipse cx="21.5" cy="397.6953" fill="#000000" rx="2.5" ry="2.5" style="stroke: #000000; stroke-width: 0.0;"/><text fill="#000000" font-family="sans-serif" font-size="13" lengthAdjust="spacingAndGlyphs" textLength="383" x="27" y="402.1294">So use this only as trigger of your logic depends on updated</text><text fill="#000000" font-family="sans-serif" font-size="13" lengthAdjust="spacingAndGlyphs" textLength="94" x="24" y="417.2622">value name !!!</text><rect fill="#FEFECE" filter="url(#f3ngn6pk05s9v)" height="33.9688" rx="12.5" ry="12.5" style="stroke: #A80036; stroke-width: 1.5;" width="440" x="445" y="373.0781"/><text fill="#000000" font-family="sans-serif" font-size="12" font-weight="bold" lengthAdjust="spacingAndGlyphs" textLength="416" x="459" y="394.2168">void onUpdateMethod()std::string*name,std::string*value)</text><path d="M865,449.7461 L865,458.3125 L845,462.3125 L865,466.3125 L865,474.8789 A0,0 0 0 0 865,474.8789 L1114,474.8789 A0,0 0 0 0 1114,474.8789 L1114,459.7461 L1104,449.7461 L865,449.7461 A0,0 0 0 0 865,449.7461 " fill="#FBFB77" filter="url(#f3ngn6pk05s9v)" style="stroke: #A80036; stroke-width: 1.0;"/><path d="M1104,449.7461 L1104,459.7461 L1114,459.7461 L1104,449.7461 " fill="#FBFB77" style="stroke: #A80036; stroke-width: 1.0;"/><ellipse cx="876.5" cy="462.3789" fill="#000000" rx="2.5" ry="2.5" style="stroke: #000000; stroke-width: 0.0;"/><text fill="#000000" font-family="sans-serif" font-size="13" lengthAdjust="spacingAndGlyphs" textLength="217" x="882" y="466.813">Do something with own command</text><rect fill="#FEFECE" filter="url(#f3ngn6pk05s9v)" height="33.9688" rx="12.5" ry="12.5" style="stroke: #A80036; stroke-width: 1.5;" width="360" x="485" y="445.3281"/><text fill="#000000" font-family="sans-serif" font-size="12" lengthAdjust="spacingAndGlyphs" textLength="0" x="499" y="466.4668"/><text fill="#000000" font-family="sans-serif" font-size="12" font-weight="bold" lengthAdjust="spacingAndGlyphs" textLength="332" x="503" y="466.4668">void onCommandMethod(std::string*command)</text><rect fill="#FEFECE" filter="url(#f3ngn6pk05s9v)" height="33.9688" rx="12.5" ry="12.5" style="stroke: #A80036; stroke-width: 1.5;" width="136" x="597" y="499.2969"/><text fill="#000000" font-family="sans-serif" font-size="12" lengthAdjust="spacingAndGlyphs" textLength="112" x="611" y="520.4355">servercode part:2</text><line style="stroke: #A80036; stroke-width: 1.5;" x1="665" x2="665" y1="50.9531" y2="70.9531"/><polygon fill="#A80036" points="661,60.9531,665,70.9531,669,60.9531,665,64.9531" style="stroke: #A80036; stroke-width: 1.0;"/><line style="stroke: #A80036; stroke-width: 1.5;" x1="523.75" x2="523.75" y1="206.8594" y2="226.8594"/><polygon fill="#A80036" points="519.75,216.8594,523.75,226.8594,527.75,216.8594,523.75,220.8594" style="stroke: #A80036; stroke-width: 1.0;"/><line style="stroke: #A80036; stroke-width: 1.5;" x1="806.25" x2="806.25" y1="206.8594" y2="226.8594"/><polygon fill="#A80036" points="802.25,216.8594,806.25,226.8594,810.25,216.8594,806.25,220.8594" style="stroke: #A80036; stroke-width: 1.0;"/><line style="stroke: #A80036; stroke-width: 1.5;" x1="559" x2="523.75" y1="150.8906" y2="150.8906"/><line style="stroke: #A80036; stroke-width: 1.5;" x1="523.75" x2="523.75" y1="150.8906" y2="172.8906"/><polygon fill="#A80036" points="519.75,162.8906,523.75,172.8906,527.75,162.8906,523.75,166.8906" style="stroke: #A80036; stroke-width: 1.0;"/><line style="stroke: #A80036; stroke-width: 1.5;" x1="771" x2="806.25" y1="150.8906" y2="150.8906"/><line style="stroke: #A80036; stroke-width: 1.5;" x1="806.25" x2="806.25" y1="150.8906" y2="172.8906"/><polygon fill="#A80036" points="802.25,162.8906,806.25,172.8906,810.25,162.8906,806.25,166.8906" style="stroke: #A80036; stroke-width: 1.0;"/><line style="stroke: #A80036; stroke-width: 1.5;" x1="523.75" x2="523.75" y1="260.8281" y2="278.8281"/><line style="stroke: #A80036; stroke-width: 1.5;" x1="523.75" x2="653" y1="278.8281" y2="278.8281"/><polygon fill="#A80036" points="643,274.8281,653,278.8281,643,282.8281,647,278.8281" style="stroke: #A80036; stroke-width: 1.0;"/><line style="stroke: #A80036; stroke-width: 1.5;" x1="806.25" x2="806.25" y1="260.8281" y2="278.8281"/><line style="stroke: #A80036; stroke-width: 1.5;" x1="806.25" x2="677" y1="278.8281" y2="278.8281"/><polygon fill="#A80036" points="687,274.8281,677,278.8281,687,282.8281,683,278.8281" style="stroke: #A80036; stroke-width: 1.0;"/><line style="stroke: #A80036; stroke-width: 1.5;" x1="665" x2="665" y1="118.8906" y2="138.8906"/><polygon fill="#A80036" points="661,128.8906,665,138.8906,669,128.8906,665,132.8906" style="stroke: #A80036; stroke-width: 1.0;"/><line style="stroke: #A80036; stroke-width: 1.5;" x1="665" x2="665" y1="290.8281" y2="310.8281"/><polygon fill="#A80036" points="661,300.8281,665,310.8281,669,300.8281,665,304.8281" style="stroke: #A80036; stroke-width: 1.0;"/><line style="stroke: #A80036; stroke-width: 1.5;" x1="665" x2="665" y1="344.7969" y2="373.0781"/><polygon fill="#A80036" points="661,363.0781,665,373.0781,669,363.0781,665,367.0781" style="stroke: #A80036; stroke-width: 1.0;"/><line style="stroke: #A80036; stroke-width: 1.5;" x1="665" x2="665" y1="407.0469" y2="445.3281"/><polygon fill="#A80036" points="661,435.3281,665,445.3281,669,435.3281,665,439.3281" style="stroke: #A80036; stroke-width: 1.0;"/><line style="stroke: #A80036; stroke-width: 1.5;" x1="665" x2="665" y1="479.2969" y2="499.2969"/><polygon fill="#A80036" points="661,489.2969,665,499.2969,669,489.2969,665,493.2969" style="stroke: #A80036; stroke-width: 1.0;"/><!--MD5=[3859c5c234739f658ffd04fb3c66082e]
@startuml
title Server.cpp Part:1 


start
 
:                      Include header file
: void ** onInitMethod **(std::string*name, std::string*value);

note right
*  OnInitMethod:  
end note
  
if (Name compared with **HTML Tag**) then (if)
  :(*name).compare(**"max_color"**) ==0) ;
  : value = "127";
else (if)
  :(*name).compare(**"stream_en"**) ==0);
 : value = "true";
endif
:(return);

:** void onUpdateMethod()std::string*name,std::string*value)**;

note left
*  Do something when some shared value was updated ! 
*  This is only event, the value was updated locally in server.
* So use this only as trigger of your logic depends on updated
  value name !!!
 end note
 
 : ** void onCommandMethod(std::string*command)**;
 note right
*  Do something with own command  
end note

: servercode part:2;
@enduml

PlantUML version 1.2019.12(Sun Nov 03 10:24:54 UTC 2019)
(GPL source distribution)
Java Runtime: Java(TM) SE Runtime Environment
JVM: Java HotSpot(TM) 64-Bit Server VM
Java Version: 1.7.0_25-b15
Operating System: Linux
Default Encoding: UTF-8
Language: en
Country: US
--></g></svg>